<mxfile host="app.diagrams.net" modified="2023-08-29T13:30:54.673Z" agent="Mozilla/5.0 (Windows NT 10.0; Win64; x64) AppleWebKit/537.36 (KHTML, like Gecko) Chrome/116.0.0.0 Safari/537.36" etag="yYRpDHuHUhbGhgK2hq6s" version="21.6.9" type="device">
  <diagram name="Page-1" id="ULByKC8m2la8xb8m0ACZ">
    <mxGraphModel dx="2074" dy="1150" grid="1" gridSize="10" guides="1" tooltips="1" connect="1" arrows="1" fold="1" page="1" pageScale="1" pageWidth="827" pageHeight="1169" math="0" shadow="0">
      <root>
        <mxCell id="0" />
        <mxCell id="1" parent="0" />
        <mxCell id="UQHUkcB4XiatkJYOVAsG-35" value="" style="endArrow=oval;html=1;rounded=0;exitX=0.5;exitY=1;exitDx=0;exitDy=0;jumpStyle=none;endFill=1;edgeStyle=orthogonalEdgeStyle;curved=1;fillColor=#e51400;strokeColor=#B20000;" parent="1" source="UQHUkcB4XiatkJYOVAsG-38" edge="1">
          <mxGeometry width="50" height="50" relative="1" as="geometry">
            <mxPoint x="230.99999999999994" y="355" as="sourcePoint" />
            <mxPoint x="215" y="385" as="targetPoint" />
            <Array as="points">
              <mxPoint x="235" y="385" />
            </Array>
          </mxGeometry>
        </mxCell>
        <mxCell id="UQHUkcB4XiatkJYOVAsG-36" value="" style="endArrow=baseDash;html=1;rounded=0;endFill=0;edgeStyle=orthogonalEdgeStyle;curved=1;fillColor=#60a917;strokeColor=#2D7600;exitX=0.5;exitY=1;exitDx=0;exitDy=0;" parent="1" edge="1">
          <mxGeometry width="50" height="50" relative="1" as="geometry">
            <mxPoint x="135" y="352" as="sourcePoint" />
            <mxPoint x="157" y="382" as="targetPoint" />
            <Array as="points">
              <mxPoint x="135" y="382" />
            </Array>
          </mxGeometry>
        </mxCell>
        <mxCell id="UQHUkcB4XiatkJYOVAsG-37" value="" style="group" parent="1" vertex="1" connectable="0">
          <mxGeometry x="210" y="305" width="50" height="50" as="geometry" />
        </mxCell>
        <mxCell id="UQHUkcB4XiatkJYOVAsG-38" value="LPTC" style="ellipse;whiteSpace=wrap;html=1;aspect=fixed;fillColor=#f8cecc;strokeColor=#b85450;" parent="UQHUkcB4XiatkJYOVAsG-37" vertex="1">
          <mxGeometry width="50" height="50" as="geometry" />
        </mxCell>
        <mxCell id="UQHUkcB4XiatkJYOVAsG-39" value="" style="endArrow=blockThin;html=1;rounded=0;endFill=1;startArrow=none;startFill=0;strokeWidth=1;endSize=2;startSize=6;" parent="UQHUkcB4XiatkJYOVAsG-37" edge="1">
          <mxGeometry width="50" height="50" relative="1" as="geometry">
            <mxPoint x="35.45999999999998" y="14" as="sourcePoint" />
            <mxPoint x="14.539999999999964" y="14" as="targetPoint" />
          </mxGeometry>
        </mxCell>
        <mxCell id="UQHUkcB4XiatkJYOVAsG-40" value="" style="group" parent="1" vertex="1" connectable="0">
          <mxGeometry x="110" y="305" width="50" height="50" as="geometry" />
        </mxCell>
        <mxCell id="UQHUkcB4XiatkJYOVAsG-41" value="STMD" style="ellipse;whiteSpace=wrap;html=1;aspect=fixed;fillColor=#d5e8d4;strokeColor=#82b366;" parent="UQHUkcB4XiatkJYOVAsG-40" vertex="1">
          <mxGeometry width="50" height="50" as="geometry" />
        </mxCell>
        <mxCell id="UQHUkcB4XiatkJYOVAsG-42" value="" style="endArrow=blockThin;html=1;rounded=0;endFill=1;startArrow=none;startFill=0;strokeWidth=1;endSize=2;startSize=6;" parent="UQHUkcB4XiatkJYOVAsG-40" edge="1">
          <mxGeometry width="50" height="50" relative="1" as="geometry">
            <mxPoint x="34.45999999999998" y="14" as="sourcePoint" />
            <mxPoint x="13.539999999999964" y="14" as="targetPoint" />
          </mxGeometry>
        </mxCell>
        <mxCell id="UQHUkcB4XiatkJYOVAsG-43" value="" style="group" parent="1" vertex="1" connectable="0">
          <mxGeometry x="160" y="359.3" width="50" height="50" as="geometry" />
        </mxCell>
        <mxCell id="UQHUkcB4XiatkJYOVAsG-44" value="TSDN" style="ellipse;whiteSpace=wrap;html=1;aspect=fixed;fillColor=#e1d5e7;strokeColor=#9673a6;" parent="UQHUkcB4XiatkJYOVAsG-43" vertex="1">
          <mxGeometry width="50" height="50" as="geometry" />
        </mxCell>
        <mxCell id="UQHUkcB4XiatkJYOVAsG-45" value="" style="endArrow=blockThin;html=1;rounded=0;endFill=1;startArrow=none;startFill=0;strokeWidth=1;endSize=2;startSize=6;" parent="UQHUkcB4XiatkJYOVAsG-43" edge="1">
          <mxGeometry width="50" height="50" relative="1" as="geometry">
            <mxPoint x="35.45999999999998" y="14.699999999999989" as="sourcePoint" />
            <mxPoint x="14.539999999999964" y="14.699999999999989" as="targetPoint" />
          </mxGeometry>
        </mxCell>
        <mxCell id="UQHUkcB4XiatkJYOVAsG-46" value="" style="group" parent="1" vertex="1" connectable="0">
          <mxGeometry x="280" y="305" width="50" height="50" as="geometry" />
        </mxCell>
        <mxCell id="UQHUkcB4XiatkJYOVAsG-47" value="LPTC" style="ellipse;whiteSpace=wrap;html=1;aspect=fixed;fillColor=#f8cecc;strokeColor=#b85450;" parent="UQHUkcB4XiatkJYOVAsG-46" vertex="1">
          <mxGeometry width="50" height="50" as="geometry" />
        </mxCell>
        <mxCell id="UQHUkcB4XiatkJYOVAsG-48" value="" style="endArrow=none;html=1;rounded=0;endFill=0;startArrow=blockThin;startFill=1;strokeWidth=1;endSize=2;startSize=2;" parent="UQHUkcB4XiatkJYOVAsG-46" edge="1">
          <mxGeometry width="50" height="50" relative="1" as="geometry">
            <mxPoint x="35.45999999999998" y="14" as="sourcePoint" />
            <mxPoint x="14.539999999999964" y="14" as="targetPoint" />
          </mxGeometry>
        </mxCell>
        <mxCell id="UQHUkcB4XiatkJYOVAsG-49" value="" style="endArrow=oval;html=1;rounded=0;exitX=0.5;exitY=0;exitDx=0;exitDy=0;jumpStyle=none;endFill=1;edgeStyle=orthogonalEdgeStyle;curved=1;fillColor=#e51400;strokeColor=#B20000;" parent="1" source="UQHUkcB4XiatkJYOVAsG-47" edge="1">
          <mxGeometry width="50" height="50" relative="1" as="geometry">
            <mxPoint x="304.9999999999999" y="305" as="sourcePoint" />
            <mxPoint x="240" y="280" as="targetPoint" />
            <Array as="points">
              <mxPoint x="305" y="280" />
            </Array>
          </mxGeometry>
        </mxCell>
        <mxCell id="UQHUkcB4XiatkJYOVAsG-50" value="" style="group" parent="1" vertex="1" connectable="0">
          <mxGeometry x="40" y="305" width="50" height="50" as="geometry" />
        </mxCell>
        <mxCell id="UQHUkcB4XiatkJYOVAsG-51" value="wSTMD" style="ellipse;whiteSpace=wrap;html=1;aspect=fixed;fillColor=#d5e8d4;strokeColor=#82b366;" parent="UQHUkcB4XiatkJYOVAsG-50" vertex="1">
          <mxGeometry width="50" height="50" as="geometry" />
        </mxCell>
        <mxCell id="UQHUkcB4XiatkJYOVAsG-52" value="" style="endArrow=none;html=1;rounded=0;endFill=0;startArrow=blockThin;startFill=1;strokeWidth=1;endSize=2;startSize=2;" parent="UQHUkcB4XiatkJYOVAsG-50" edge="1">
          <mxGeometry width="50" height="50" relative="1" as="geometry">
            <mxPoint x="34.45999999999998" y="14" as="sourcePoint" />
            <mxPoint x="13.539999999999964" y="14" as="targetPoint" />
          </mxGeometry>
        </mxCell>
        <mxCell id="UQHUkcB4XiatkJYOVAsG-57" value="" style="endArrow=baseDash;html=1;rounded=0;endFill=0;edgeStyle=orthogonalEdgeStyle;curved=1;fillColor=#60a917;strokeColor=#2D7600;exitX=0.5;exitY=1;exitDx=0;exitDy=0;" parent="1" source="UQHUkcB4XiatkJYOVAsG-51" edge="1">
          <mxGeometry width="50" height="50" relative="1" as="geometry">
            <mxPoint x="65" y="352" as="sourcePoint" />
            <mxPoint x="157" y="391" as="targetPoint" />
            <Array as="points">
              <mxPoint x="65" y="391" />
            </Array>
          </mxGeometry>
        </mxCell>
        <mxCell id="UQHUkcB4XiatkJYOVAsG-77" value="" style="endArrow=oval;html=1;rounded=0;exitX=0.5;exitY=1;exitDx=0;exitDy=0;jumpStyle=none;endFill=1;edgeStyle=orthogonalEdgeStyle;curved=1;fillColor=#e51400;strokeColor=#B20000;" parent="1" source="UQHUkcB4XiatkJYOVAsG-80" edge="1">
          <mxGeometry width="50" height="50" relative="1" as="geometry">
            <mxPoint x="240.99999999999994" y="193" as="sourcePoint" />
            <mxPoint x="225" y="223" as="targetPoint" />
            <Array as="points">
              <mxPoint x="245" y="223" />
            </Array>
          </mxGeometry>
        </mxCell>
        <mxCell id="UQHUkcB4XiatkJYOVAsG-78" value="" style="endArrow=baseDash;html=1;rounded=0;endFill=0;edgeStyle=orthogonalEdgeStyle;curved=1;fillColor=#60a917;strokeColor=#2D7600;exitX=0.5;exitY=1;exitDx=0;exitDy=0;" parent="1" source="UQHUkcB4XiatkJYOVAsG-83" edge="1">
          <mxGeometry width="50" height="50" relative="1" as="geometry">
            <mxPoint x="145" y="193" as="sourcePoint" />
            <mxPoint x="167" y="223" as="targetPoint" />
            <Array as="points">
              <mxPoint x="145" y="223" />
            </Array>
          </mxGeometry>
        </mxCell>
        <mxCell id="UQHUkcB4XiatkJYOVAsG-79" value="" style="group" parent="1" vertex="1" connectable="0">
          <mxGeometry x="220" y="143" width="50" height="50" as="geometry" />
        </mxCell>
        <mxCell id="UQHUkcB4XiatkJYOVAsG-80" value="LPTC" style="ellipse;whiteSpace=wrap;html=1;aspect=fixed;fillColor=#f8cecc;strokeColor=#b85450;" parent="UQHUkcB4XiatkJYOVAsG-79" vertex="1">
          <mxGeometry width="50" height="50" as="geometry" />
        </mxCell>
        <mxCell id="UQHUkcB4XiatkJYOVAsG-81" value="" style="endArrow=blockThin;html=1;rounded=0;endFill=1;startArrow=none;startFill=0;strokeWidth=1;endSize=2;startSize=6;" parent="UQHUkcB4XiatkJYOVAsG-79" edge="1">
          <mxGeometry width="50" height="50" relative="1" as="geometry">
            <mxPoint x="35.45999999999998" y="14" as="sourcePoint" />
            <mxPoint x="14.539999999999964" y="14" as="targetPoint" />
          </mxGeometry>
        </mxCell>
        <mxCell id="UQHUkcB4XiatkJYOVAsG-82" value="" style="group" parent="1" vertex="1" connectable="0">
          <mxGeometry x="120" y="143" width="50" height="50" as="geometry" />
        </mxCell>
        <mxCell id="UQHUkcB4XiatkJYOVAsG-83" value="STMD" style="ellipse;whiteSpace=wrap;html=1;aspect=fixed;fillColor=#d5e8d4;strokeColor=#82b366;" parent="UQHUkcB4XiatkJYOVAsG-82" vertex="1">
          <mxGeometry width="50" height="50" as="geometry" />
        </mxCell>
        <mxCell id="UQHUkcB4XiatkJYOVAsG-84" value="" style="endArrow=blockThin;html=1;rounded=0;endFill=1;startArrow=none;startFill=0;strokeWidth=1;endSize=2;startSize=6;" parent="UQHUkcB4XiatkJYOVAsG-82" edge="1">
          <mxGeometry width="50" height="50" relative="1" as="geometry">
            <mxPoint x="34.45999999999998" y="14" as="sourcePoint" />
            <mxPoint x="13.539999999999964" y="14" as="targetPoint" />
          </mxGeometry>
        </mxCell>
        <mxCell id="UQHUkcB4XiatkJYOVAsG-85" value="" style="group" parent="1" vertex="1" connectable="0">
          <mxGeometry x="170" y="197.3" width="50" height="50" as="geometry" />
        </mxCell>
        <mxCell id="UQHUkcB4XiatkJYOVAsG-86" value="TSDN" style="ellipse;whiteSpace=wrap;html=1;aspect=fixed;fillColor=#e1d5e7;strokeColor=#9673a6;" parent="UQHUkcB4XiatkJYOVAsG-85" vertex="1">
          <mxGeometry width="50" height="50" as="geometry" />
        </mxCell>
        <mxCell id="UQHUkcB4XiatkJYOVAsG-87" value="" style="endArrow=blockThin;html=1;rounded=0;endFill=1;startArrow=none;startFill=0;strokeWidth=1;endSize=2;startSize=6;" parent="UQHUkcB4XiatkJYOVAsG-85" edge="1">
          <mxGeometry width="50" height="50" relative="1" as="geometry">
            <mxPoint x="35.45999999999998" y="14.699999999999989" as="sourcePoint" />
            <mxPoint x="14.539999999999964" y="14.699999999999989" as="targetPoint" />
          </mxGeometry>
        </mxCell>
        <mxCell id="UQHUkcB4XiatkJYOVAsG-141" value="" style="endArrow=oval;html=1;rounded=0;exitX=0.5;exitY=1;exitDx=0;exitDy=0;jumpStyle=none;endFill=1;edgeStyle=orthogonalEdgeStyle;curved=1;fillColor=#e51400;strokeColor=#B20000;" parent="1" source="UQHUkcB4XiatkJYOVAsG-144" edge="1">
          <mxGeometry width="50" height="50" relative="1" as="geometry">
            <mxPoint x="561" y="374.97" as="sourcePoint" />
            <mxPoint x="545" y="404.97" as="targetPoint" />
            <Array as="points">
              <mxPoint x="565" y="404.97" />
            </Array>
          </mxGeometry>
        </mxCell>
        <mxCell id="UQHUkcB4XiatkJYOVAsG-142" value="" style="endArrow=baseDash;html=1;rounded=0;endFill=0;edgeStyle=orthogonalEdgeStyle;curved=1;fillColor=#60a917;strokeColor=#2D7600;exitX=0.5;exitY=1;exitDx=0;exitDy=0;" parent="1" edge="1">
          <mxGeometry width="50" height="50" relative="1" as="geometry">
            <mxPoint x="465" y="371.97" as="sourcePoint" />
            <mxPoint x="487" y="401.97" as="targetPoint" />
            <Array as="points">
              <mxPoint x="465" y="401.97" />
            </Array>
          </mxGeometry>
        </mxCell>
        <mxCell id="UQHUkcB4XiatkJYOVAsG-143" value="" style="group" parent="1" vertex="1" connectable="0">
          <mxGeometry x="540" y="324.97" width="50" height="50" as="geometry" />
        </mxCell>
        <mxCell id="UQHUkcB4XiatkJYOVAsG-144" value="LPTC" style="ellipse;whiteSpace=wrap;html=1;aspect=fixed;fillColor=#f8cecc;strokeColor=#b85450;" parent="UQHUkcB4XiatkJYOVAsG-143" vertex="1">
          <mxGeometry width="50" height="50" as="geometry" />
        </mxCell>
        <mxCell id="UQHUkcB4XiatkJYOVAsG-145" value="" style="endArrow=blockThin;html=1;rounded=0;endFill=1;startArrow=none;startFill=0;strokeWidth=1;endSize=2;startSize=6;" parent="UQHUkcB4XiatkJYOVAsG-143" edge="1">
          <mxGeometry width="50" height="50" relative="1" as="geometry">
            <mxPoint x="35.45999999999998" y="14" as="sourcePoint" />
            <mxPoint x="14.539999999999964" y="14" as="targetPoint" />
          </mxGeometry>
        </mxCell>
        <mxCell id="UQHUkcB4XiatkJYOVAsG-146" value="" style="group" parent="1" vertex="1" connectable="0">
          <mxGeometry x="440" y="324.97" width="50" height="50" as="geometry" />
        </mxCell>
        <mxCell id="UQHUkcB4XiatkJYOVAsG-147" value="STMD" style="ellipse;whiteSpace=wrap;html=1;aspect=fixed;fillColor=#d5e8d4;strokeColor=#82b366;" parent="UQHUkcB4XiatkJYOVAsG-146" vertex="1">
          <mxGeometry width="50" height="50" as="geometry" />
        </mxCell>
        <mxCell id="UQHUkcB4XiatkJYOVAsG-148" value="" style="endArrow=blockThin;html=1;rounded=0;endFill=1;startArrow=none;startFill=0;strokeWidth=1;endSize=2;startSize=6;" parent="UQHUkcB4XiatkJYOVAsG-146" edge="1">
          <mxGeometry width="50" height="50" relative="1" as="geometry">
            <mxPoint x="34.45999999999998" y="14" as="sourcePoint" />
            <mxPoint x="13.539999999999964" y="14" as="targetPoint" />
          </mxGeometry>
        </mxCell>
        <mxCell id="UQHUkcB4XiatkJYOVAsG-149" value="" style="group" parent="1" vertex="1" connectable="0">
          <mxGeometry x="490" y="379.27000000000004" width="50" height="50" as="geometry" />
        </mxCell>
        <mxCell id="UQHUkcB4XiatkJYOVAsG-150" value="TSDN" style="ellipse;whiteSpace=wrap;html=1;aspect=fixed;fillColor=#e1d5e7;strokeColor=#9673a6;" parent="UQHUkcB4XiatkJYOVAsG-149" vertex="1">
          <mxGeometry width="50" height="50" as="geometry" />
        </mxCell>
        <mxCell id="UQHUkcB4XiatkJYOVAsG-151" value="" style="endArrow=blockThin;html=1;rounded=0;endFill=1;startArrow=none;startFill=0;strokeWidth=1;endSize=2;startSize=6;" parent="UQHUkcB4XiatkJYOVAsG-149" edge="1">
          <mxGeometry width="50" height="50" relative="1" as="geometry">
            <mxPoint x="35.45999999999998" y="14.699999999999989" as="sourcePoint" />
            <mxPoint x="14.539999999999964" y="14.699999999999989" as="targetPoint" />
          </mxGeometry>
        </mxCell>
        <mxCell id="UQHUkcB4XiatkJYOVAsG-156" value="" style="group" parent="1" vertex="1" connectable="0">
          <mxGeometry x="370" y="324.97" width="50" height="50" as="geometry" />
        </mxCell>
        <mxCell id="UQHUkcB4XiatkJYOVAsG-157" value="wSTMD" style="ellipse;whiteSpace=wrap;html=1;aspect=fixed;fillColor=#d5e8d4;strokeColor=#82b366;" parent="UQHUkcB4XiatkJYOVAsG-156" vertex="1">
          <mxGeometry width="50" height="50" as="geometry" />
        </mxCell>
        <mxCell id="UQHUkcB4XiatkJYOVAsG-158" value="" style="endArrow=none;html=1;rounded=0;endFill=0;startArrow=blockThin;startFill=1;strokeWidth=1;endSize=2;startSize=2;" parent="UQHUkcB4XiatkJYOVAsG-156" edge="1">
          <mxGeometry width="50" height="50" relative="1" as="geometry">
            <mxPoint x="34.45999999999998" y="14" as="sourcePoint" />
            <mxPoint x="13.539999999999964" y="14" as="targetPoint" />
          </mxGeometry>
        </mxCell>
        <mxCell id="UQHUkcB4XiatkJYOVAsG-159" value="" style="endArrow=baseDash;html=1;rounded=0;endFill=0;edgeStyle=orthogonalEdgeStyle;curved=1;fillColor=#60a917;strokeColor=#2D7600;exitX=0.5;exitY=1;exitDx=0;exitDy=0;" parent="1" source="UQHUkcB4XiatkJYOVAsG-157" edge="1">
          <mxGeometry width="50" height="50" relative="1" as="geometry">
            <mxPoint x="395" y="371.97" as="sourcePoint" />
            <mxPoint x="487" y="410.97" as="targetPoint" />
            <Array as="points">
              <mxPoint x="395" y="410.97" />
            </Array>
          </mxGeometry>
        </mxCell>
        <mxCell id="UQHUkcB4XiatkJYOVAsG-163" value="" style="endArrow=baseDash;html=1;rounded=0;strokeColor=#2D7600;endFill=0;" parent="1" edge="1">
          <mxGeometry width="50" height="50" relative="1" as="geometry">
            <mxPoint x="234.76" y="262" as="sourcePoint" />
            <mxPoint x="234.76" y="302" as="targetPoint" />
          </mxGeometry>
        </mxCell>
        <mxCell id="UQHUkcB4XiatkJYOVAsG-164" value="" style="endArrow=oval;html=1;rounded=0;exitX=0.5;exitY=1;exitDx=0;exitDy=0;jumpStyle=none;endFill=1;edgeStyle=orthogonalEdgeStyle;curved=1;fillColor=#e51400;strokeColor=#B20000;" parent="1" source="UQHUkcB4XiatkJYOVAsG-167" edge="1">
          <mxGeometry width="50" height="50" relative="1" as="geometry">
            <mxPoint x="501" y="213" as="sourcePoint" />
            <mxPoint x="485" y="243" as="targetPoint" />
            <Array as="points">
              <mxPoint x="505" y="243" />
            </Array>
          </mxGeometry>
        </mxCell>
        <mxCell id="UQHUkcB4XiatkJYOVAsG-165" value="" style="endArrow=baseDash;html=1;rounded=0;endFill=0;edgeStyle=orthogonalEdgeStyle;curved=1;fillColor=#60a917;strokeColor=#2D7600;exitX=0.5;exitY=1;exitDx=0;exitDy=0;" parent="1" edge="1">
          <mxGeometry width="50" height="50" relative="1" as="geometry">
            <mxPoint x="405" y="210" as="sourcePoint" />
            <mxPoint x="427" y="240" as="targetPoint" />
            <Array as="points">
              <mxPoint x="405" y="240" />
            </Array>
          </mxGeometry>
        </mxCell>
        <mxCell id="UQHUkcB4XiatkJYOVAsG-166" value="" style="group" parent="1" vertex="1" connectable="0">
          <mxGeometry x="480" y="163" width="50" height="50" as="geometry" />
        </mxCell>
        <mxCell id="UQHUkcB4XiatkJYOVAsG-167" value="LPTC" style="ellipse;whiteSpace=wrap;html=1;aspect=fixed;fillColor=#f8cecc;strokeColor=#b85450;" parent="UQHUkcB4XiatkJYOVAsG-166" vertex="1">
          <mxGeometry width="50" height="50" as="geometry" />
        </mxCell>
        <mxCell id="UQHUkcB4XiatkJYOVAsG-168" value="" style="endArrow=blockThin;html=1;rounded=0;endFill=1;startArrow=none;startFill=0;strokeWidth=1;endSize=2;startSize=6;" parent="UQHUkcB4XiatkJYOVAsG-166" edge="1">
          <mxGeometry width="50" height="50" relative="1" as="geometry">
            <mxPoint x="35.45999999999998" y="14" as="sourcePoint" />
            <mxPoint x="14.539999999999964" y="14" as="targetPoint" />
          </mxGeometry>
        </mxCell>
        <mxCell id="UQHUkcB4XiatkJYOVAsG-169" value="" style="group" parent="1" vertex="1" connectable="0">
          <mxGeometry x="380" y="163" width="50" height="50" as="geometry" />
        </mxCell>
        <mxCell id="UQHUkcB4XiatkJYOVAsG-170" value="STMD" style="ellipse;whiteSpace=wrap;html=1;aspect=fixed;fillColor=#d5e8d4;strokeColor=#82b366;" parent="UQHUkcB4XiatkJYOVAsG-169" vertex="1">
          <mxGeometry width="50" height="50" as="geometry" />
        </mxCell>
        <mxCell id="UQHUkcB4XiatkJYOVAsG-171" value="" style="endArrow=blockThin;html=1;rounded=0;endFill=1;startArrow=none;startFill=0;strokeWidth=1;endSize=2;startSize=6;" parent="UQHUkcB4XiatkJYOVAsG-169" edge="1">
          <mxGeometry width="50" height="50" relative="1" as="geometry">
            <mxPoint x="34.45999999999998" y="14" as="sourcePoint" />
            <mxPoint x="13.539999999999964" y="14" as="targetPoint" />
          </mxGeometry>
        </mxCell>
        <mxCell id="UQHUkcB4XiatkJYOVAsG-172" value="" style="group" parent="1" vertex="1" connectable="0">
          <mxGeometry x="430" y="217.3" width="50" height="50" as="geometry" />
        </mxCell>
        <mxCell id="UQHUkcB4XiatkJYOVAsG-173" value="TSDN" style="ellipse;whiteSpace=wrap;html=1;aspect=fixed;fillColor=#e1d5e7;strokeColor=#9673a6;" parent="UQHUkcB4XiatkJYOVAsG-172" vertex="1">
          <mxGeometry width="50" height="50" as="geometry" />
        </mxCell>
        <mxCell id="UQHUkcB4XiatkJYOVAsG-174" value="" style="endArrow=blockThin;html=1;rounded=0;endFill=1;startArrow=none;startFill=0;strokeWidth=1;endSize=2;startSize=6;" parent="UQHUkcB4XiatkJYOVAsG-172" edge="1">
          <mxGeometry width="50" height="50" relative="1" as="geometry">
            <mxPoint x="35.45999999999998" y="14.699999999999989" as="sourcePoint" />
            <mxPoint x="14.539999999999964" y="14.699999999999989" as="targetPoint" />
          </mxGeometry>
        </mxCell>
        <mxCell id="UQHUkcB4XiatkJYOVAsG-175" value="" style="group" parent="1" vertex="1" connectable="0">
          <mxGeometry x="550" y="163" width="50" height="50" as="geometry" />
        </mxCell>
        <mxCell id="UQHUkcB4XiatkJYOVAsG-176" value="LPTC" style="ellipse;whiteSpace=wrap;html=1;aspect=fixed;fillColor=#f8cecc;strokeColor=#b85450;" parent="UQHUkcB4XiatkJYOVAsG-175" vertex="1">
          <mxGeometry width="50" height="50" as="geometry" />
        </mxCell>
        <mxCell id="UQHUkcB4XiatkJYOVAsG-177" value="" style="endArrow=none;html=1;rounded=0;endFill=0;startArrow=blockThin;startFill=1;strokeWidth=1;endSize=2;startSize=2;" parent="UQHUkcB4XiatkJYOVAsG-175" edge="1">
          <mxGeometry width="50" height="50" relative="1" as="geometry">
            <mxPoint x="35.45999999999998" y="14" as="sourcePoint" />
            <mxPoint x="14.539999999999964" y="14" as="targetPoint" />
          </mxGeometry>
        </mxCell>
        <mxCell id="UQHUkcB4XiatkJYOVAsG-178" value="" style="endArrow=oval;html=1;rounded=0;exitX=0.5;exitY=0;exitDx=0;exitDy=0;jumpStyle=none;endFill=1;edgeStyle=orthogonalEdgeStyle;curved=1;fillColor=#e51400;strokeColor=#B20000;" parent="1" source="UQHUkcB4XiatkJYOVAsG-176" edge="1">
          <mxGeometry width="50" height="50" relative="1" as="geometry">
            <mxPoint x="574.9999999999999" y="163" as="sourcePoint" />
            <mxPoint x="510" y="138" as="targetPoint" />
            <Array as="points">
              <mxPoint x="575" y="138" />
            </Array>
          </mxGeometry>
        </mxCell>
        <mxCell id="UQHUkcB4XiatkJYOVAsG-183" value="" style="endArrow=baseDash;html=1;rounded=0;strokeColor=#2D7600;endFill=0;" parent="1" edge="1">
          <mxGeometry width="50" height="50" relative="1" as="geometry">
            <mxPoint x="504.76" y="120" as="sourcePoint" />
            <mxPoint x="504.76" y="160" as="targetPoint" />
          </mxGeometry>
        </mxCell>
      </root>
    </mxGraphModel>
  </diagram>
</mxfile>
